<?xml version="1.0" standalone="no"?>
<svg t="1660790303139" class="icon" viewBox="0 0 1024 1024" version="1.1" xmlns="http://www.w3.org/2000/svg" p-id="3873" xmlns:xlink="http://www.w3.org/1999/xlink" width="30" height="30">
    <defs>
        <style type="text/css"></style>
    </defs>
    <path d="M424.6 670.1c53.7 34.3 153.4 31.9 207.9-38.2 63.9-81.8-6.2-198.6-70.1-144.1 45.2 43.6-10.9 124.6-91.9 95-35.8-20.2-49.8-49.1-42.1-88 7.8-54.5 55.3-101.2 119.9-115.3 134-29.6 219.6 36.6 250.8 151.1 74 271.8-288.9 391-476.6 236.8-151.1-123.8-130.8-354.3-14-476.6C460.4 132.7 726.7 162.3 775 346.9c-74-67.8-220.4-90.3-326.3-28-118.4 70-155.8 265.5-24.1 351.2z" fill="" p-id="3874"></path>
</svg>