<?xml version="1.0" standalone="no"?>
<svg t="1660898640944" class="icon" viewBox="0 0 1024 1024" version="1.1" xmlns="http://www.w3.org/2000/svg" p-id="3849" xmlns:xlink="http://www.w3.org/1999/xlink" width="30" height="30">
    <defs>
        <style type="text/css"></style>
    </defs>
    <path d="M356.906667 886.4A403.2 403.2 0 0 0 512 917.333333V512z" fill="#8BC34A" p-id="3850"></path>
    <path d="M667.093333 137.6A403.2 403.2 0 0 0 512 106.666667v405.333333zM137.6 356.906667A403.2 403.2 0 0 0 106.666667 512h405.333333z" fill="#33691E" p-id="3851"></path>
    <path d="M886.4 667.093333A403.2 403.2 0 0 0 917.333333 512H512z" fill="#DCEDC8" p-id="3852"></path>
    <path d="M137.6 667.093333a402.773333 402.773333 0 0 0 87.893333 131.413334L512 512z" fill="#689F38" p-id="3853"></path>
    <path d="M225.493333 225.493333L512 512 356.906667 137.6a405.333333 405.333333 0 0 0-131.413334 87.893333z" fill="#33691E" p-id="3854"></path>
    <path d="M512 512l155.093333 374.4a402.773333 402.773333 0 0 0 131.413334-87.893333z" fill="#AED581" p-id="3855"></path>
    <path d="M356.906667 886.4L512 512 225.493333 798.506667a405.333333 405.333333 0 0 0 131.413334 87.893333z" fill="#7CB342" p-id="3856"></path>
    <path d="M512 512l286.72-286.72a408.746667 408.746667 0 0 0-131.626667-87.68zM137.6 356.906667L512 512 225.493333 225.493333a402.773333 402.773333 0 0 0-87.893333 131.413334z" fill="#33691E" p-id="3857"></path>
    <path d="M512 512l286.506667 286.506667a405.333333 405.333333 0 0 0 87.893333-131.413334z" fill="#C5E1A5" p-id="3858"></path>
    <path d="M106.666667 512a403.2 403.2 0 0 0 30.933333 155.093333L512 512z" fill="#558B2F" p-id="3859"></path>
    <path d="M512 512V106.666667a403.2 403.2 0 0 0-155.093333 30.933333z" fill="#33691E" p-id="3860"></path>
    <path d="M512 512v405.333333a403.2 403.2 0 0 0 155.093333-30.933333z" fill="#9CCC65" p-id="3861"></path>
    <path d="M512 512h405.333333a403.2 403.2 0 0 0-30.933333-155.093333z" fill="#F1F8E9" p-id="3862"></path>
    <path d="M886.4 356.906667a408.746667 408.746667 0 0 0-87.68-131.626667L512 512z" fill="#33691E" p-id="3863"></path>
    <path d="M512 512m-320 0a320 320 0 1 0 640 0 320 320 0 1 0-640 0Z" fill="#FFFFFF" p-id="3864"></path>
    <path d="M682.666667 405.333333h213.333333V192L682.666667 405.333333z" fill="#33691E" p-id="3865"></path>
    <path d="M533.333333 512h-42.666666v-193.706667a21.333333 21.333333 0 0 1 21.333333-21.333333 21.333333 21.333333 0 0 1 21.333333 21.333333z" fill="#37474F" p-id="3866"></path>
    <path d="M496.853333 496.853333l30.293334 30.293334-106.666667 106.666666a21.333333 21.333333 0 0 1-30.293333 0 21.333333 21.333333 0 0 1 0-30.293333z" fill="#37474F" p-id="3867"></path>
    <path d="M512 512m-42.666667 0a42.666667 42.666667 0 1 0 85.333334 0 42.666667 42.666667 0 1 0-85.333334 0Z" fill="#37474F" p-id="3868"></path>
    <path d="M512 512m-21.333333 0a21.333333 21.333333 0 1 0 42.666666 0 21.333333 21.333333 0 1 0-42.666666 0Z" fill="#689F38" p-id="3869"></path>
    <path d="M512 256m-21.333333 0a21.333333 21.333333 0 1 0 42.666666 0 21.333333 21.333333 0 1 0-42.666666 0Z" fill="#37474F" p-id="3870"></path>
    <path d="M512 768m-21.333333 0a21.333333 21.333333 0 1 0 42.666666 0 21.333333 21.333333 0 1 0-42.666666 0Z" fill="#37474F" p-id="3871"></path>
    <path d="M256 512m-21.333333 0a21.333333 21.333333 0 1 0 42.666666 0 21.333333 21.333333 0 1 0-42.666666 0Z" fill="#37474F" p-id="3872"></path>
    <path d="M768 512m-21.333333 0a21.333333 21.333333 0 1 0 42.666666 0 21.333333 21.333333 0 1 0-42.666666 0Z" fill="#37474F" p-id="3873"></path>
    <path d="M290.346667 640m-10.666667 0a10.666667 10.666667 0 1 0 21.333333 0 10.666667 10.666667 0 1 0-21.333333 0Z" fill="#35495D" p-id="3874"></path>
    <path d="M384 290.346667m-10.666667 0a10.666667 10.666667 0 1 0 21.333334 0 10.666667 10.666667 0 1 0-21.333334 0Z" fill="#35495D" p-id="3875"></path>
    <path d="M640 733.653333m-10.666667 0a10.666667 10.666667 0 1 0 21.333334 0 10.666667 10.666667 0 1 0-21.333334 0Z" fill="#35495D" p-id="3876"></path>
    <path d="M733.653333 640m-10.666666 0a10.666667 10.666667 0 1 0 21.333333 0 10.666667 10.666667 0 1 0-21.333333 0Z" fill="#35495D" p-id="3877"></path>
    <path d="M290.346667 384m-10.666667 0a10.666667 10.666667 0 1 0 21.333333 0 10.666667 10.666667 0 1 0-21.333333 0Z" fill="#35495D" p-id="3878"></path>
    <path d="M640 290.346667m-10.666667 0a10.666667 10.666667 0 1 0 21.333334 0 10.666667 10.666667 0 1 0-21.333334 0Z" fill="#35495D" p-id="3879"></path>
    <path d="M384 733.653333m-10.666667 0a10.666667 10.666667 0 1 0 21.333334 0 10.666667 10.666667 0 1 0-21.333334 0Z" fill="#35495D" p-id="3880"></path>
</svg>