<?xml version="1.0" standalone="no"?>
<svg t="1660793314084" class="icon" viewBox="0 0 1024 1024" version="1.1" xmlns="http://www.w3.org/2000/svg" p-id="15533" xmlns:xlink="http://www.w3.org/1999/xlink" width="30" height="30">
    <defs>
        <style type="text/css"></style>
    </defs>
    <path d="M512 341.333333a128 128 0 0 0 128-128 128 128 0 0 0-128-128 128 128 0 0 0-128 128 128 128 0 0 0 128 128m0 151.04C411.306667 398.933333 277.333333 341.333333 128 341.333333v469.333334c149.333333 0 283.306667 57.6 384 151.04 100.693333-93.44 234.666667-151.04 384-151.04V341.333333c-149.333333 0-283.306667 57.6-384 151.04z" fill="#ffffff" p-id="15534"></path>
</svg>