<?xml version="1.0" standalone="no"?>
<svg t="1660811600569" class="icon" viewBox="0 0 1024 1024" version="1.1" xmlns="http://www.w3.org/2000/svg" p-id="4782" xmlns:xlink="http://www.w3.org/1999/xlink" width="30" height="30">
    <defs>
        <style type="text/css"></style>
    </defs>
    <path d="M514.1 510.7m-490.3 0a490.3 490.3 0 1 0 980.6 0 490.3 490.3 0 1 0-980.6 0Z" fill="#F9EFC7" p-id="4783"></path>
    <path d="M486.9 613h54.3v238.6h-54.3z" fill="#AF754E" p-id="4784"></path>
    <path d="M541.2 858.6h-54.3c-3.9 0-7-3.1-7-7V613c0-3.9 3.1-7 7-7h54.3c3.9 0 7 3.1 7 7v238.6c0 3.9-3.1 7-7 7z m-47.3-14h40.3V620h-40.3v224.6z" fill="#151515" p-id="4785"></path>
    <path d="M536.3 191.1c9.7 8.9 23.8 11.1 35.8 5.7 15.5-7 33.8-1.1 42.2 13.7 6.5 11.4 19.2 17.9 32.3 16.4 16.9-1.9 32.5 9.4 35.9 26.1 2.7 12.9 12.7 23 25.6 25.6 16.7 3.4 28 19 26.1 35.9-1.5 13.1 5 25.8 16.4 32.3 14.8 8.4 20.7 26.7 13.7 42.2-5.4 12-3.2 26.1 5.7 35.8 11.5 12.6 11.5 31.8 0 44.4-8.9 9.7-11.1 23.8-5.7 35.8 7 15.5 1.1 33.8-13.7 42.2-11.4 6.5-17.9 19.2-16.4 32.3 1.9 16.9-9.4 32.5-26.1 35.9-12.9 2.7-23 12.7-25.6 25.6-3.4 16.7-19 28-35.9 26.1-13.1-1.5-25.8 5-32.3 16.4-8.4 14.8-26.7 20.7-42.2 13.7-12-5.4-26.1-3.2-35.8 5.7-12.6 11.5-31.8 11.5-44.4 0-9.7-8.9-23.8-11.1-35.8-5.7-15.5 7-33.8 1.1-42.2-13.7-6.5-11.4-19.2-17.9-32.3-16.4-16.9 1.9-32.5-9.4-35.9-26.1-2.7-12.9-12.7-23-25.6-25.6-16.7-3.4-28-19-26.1-35.9 1.5-13.1-5-25.8-16.4-32.3-14.8-8.4-20.7-26.7-13.7-42.2 5.4-12 3.2-26.1-5.7-35.8-11.5-12.6-11.5-31.8 0-44.4 8.9-9.7 11.1-23.8 5.7-35.8-7-15.5-1.1-33.8 13.7-42.2 11.4-6.5 17.9-19.2 16.4-32.3-1.9-16.9 9.4-32.5 26.1-35.9 12.9-2.7 23-12.7 25.6-25.6 3.4-16.7 19-28 35.9-26.1 13.1 1.5 25.8-5 32.3-16.4 8.4-14.8 26.7-20.7 42.2-13.7 12 5.4 26.1 3.2 35.8-5.7 12.5-11.5 31.8-11.5 44.4 0z" fill="#6FC439" p-id="4786"></path>
    <path d="M514.1 718.6c-9.6 0-19.2-3.5-26.9-10.5-7.7-7-18.7-8.7-28.2-4.5-18.9 8.6-40.9 1.4-51.2-16.6-5.1-9-15.1-14.1-25.4-13-20.6 2.3-39.4-11.3-43.5-31.6-2.1-10.2-10-18.1-20.2-20.2-20.3-4.2-33.9-22.9-31.6-43.5 1.2-10.3-3.9-20.3-13-25.4-18.1-10.3-25.3-32.3-16.7-51.2 4.3-9.5 2.5-20.5-4.5-28.2-14-15.3-14-38.5 0-53.8 7-7.7 8.7-18.7 4.5-28.2-8.6-18.9-1.4-40.9 16.6-51.2 9-5.1 14.1-15.1 13-25.4-2.3-20.6 11.3-39.4 31.6-43.5 10.2-2.1 18.1-10 20.2-20.2 4.2-20.3 22.9-33.9 43.5-31.6 10.3 1.2 20.3-3.9 25.4-13 10.3-18.1 32.3-25.2 51.2-16.6 9.5 4.3 20.5 2.5 28.2-4.5 15.3-14 38.5-14 53.8 0 7.7 7 18.7 8.7 28.2 4.5 18.9-8.6 40.9-1.4 51.2 16.6 5.1 9 15.1 14.1 25.4 13 20.6-2.3 39.4 11.3 43.5 31.6 2.1 10.2 10 18.1 20.2 20.2 20.3 4.2 33.9 22.9 31.6 43.5-1.2 10.3 3.9 20.3 13 25.4 18.1 10.3 25.2 32.3 16.6 51.2-4.3 9.5-2.5 20.5 4.5 28.2 14 15.3 14 38.5 0 53.8-7 7.7-8.7 18.7-4.5 28.2 8.6 18.9 1.4 40.9-16.6 51.2-9 5.1-14.1 15.1-13 25.4 2.3 20.6-11.3 39.4-31.6 43.5-10.2 2.1-18.1 10-20.2 20.2-4.2 20.3-22.9 33.9-43.5 31.6-10.3-1.2-20.3 3.9-25.4 13-10.3 18.1-32.3 25.2-51.2 16.6-9.5-4.3-20.5-2.5-28.2 4.5-7.6 7-17.2 10.5-26.8 10.5z m-44.4-31.3c9.8 0 19.4 3.6 26.9 10.4 10 9.1 25 9.1 35 0 11.8-10.8 28.8-13.5 43.4-6.9 12.3 5.6 26.6 0.9 33.2-10.8 7.9-13.9 23.3-21.7 39.1-19.9 13.4 1.5 25.6-7.3 28.3-20.5 3.2-15.7 15.4-27.8 31.1-31.1 13.2-2.7 22-14.9 20.5-28.3-1.8-15.9 6.1-31.2 19.9-39.1 11.7-6.7 16.4-21 10.8-33.2-6.6-14.6-3.9-31.6 6.9-43.4 9.1-10 9.1-25 0-35-10.8-11.8-13.5-28.8-6.9-43.4 5.6-12.3 0.9-26.6-10.8-33.2-13.9-7.9-21.7-23.3-19.9-39.1 1.5-13.4-7.3-25.6-20.5-28.3-15.7-3.2-27.8-15.4-31.1-31.1-2.7-13.2-14.9-22-28.3-20.5-15.9 1.8-31.2-6.1-39.1-19.9-6.7-11.7-21-16.4-33.2-10.8-14.6 6.6-31.6 3.9-43.4-6.9-10-9.1-25-9.1-35 0-11.8 10.8-28.8 13.5-43.4 6.9-12.3-5.6-26.6-0.9-33.2 10.8-7.9 13.9-23.3 21.7-39.1 19.9-13.4-1.5-25.6 7.3-28.3 20.5-3.2 15.7-15.4 27.8-31.1 31.1-13.2 2.7-22 14.9-20.5 28.3 1.8 15.9-6.1 31.2-19.9 39.1-11.7 6.7-16.4 21-10.8 33.2 6.6 14.6 3.9 31.6-6.9 43.4-9.1 10-9.1 25 0 35 10.8 11.8 13.5 28.8 6.9 43.4-5.6 12.3-0.9 26.6 10.8 33.2 13.9 7.9 21.7 23.3 19.9 39.1-1.5 13.4 7.3 25.6 20.5 28.3 15.7 3.2 27.8 15.4 31.1 31.1 2.7 13.2 14.9 22 28.3 20.5 15.9-1.8 31.2 6.1 39.1 19.9 6.7 11.7 21 16.4 33.2 10.8 5.3-2.3 10.9-3.5 16.5-3.5z" fill="#151515" p-id="4787"></path>
    <path d="M611.7 279.8c-3.2 0-6.1-2.2-6.8-5.5-1.6-7.4-5.1-12.6-10.8-16-14.7-8.9-38.5-2.3-38.7-2.2-2.9 0.8-5.9-0.3-7.6-2.7-8.4-12-17-18.4-25.6-19-10.2-0.7-17.7 7.3-17.8 7.4-2.6 2.8-7 3-9.9 0.5s-3.1-7-0.5-9.8c0.5-0.5 11.9-13 28.9-12 12 0.7 23.2 7.8 33.5 21.1 9.2-1.8 29.6-4.4 44.9 4.8 9 5.4 14.8 13.9 17.3 25.1 0.8 3.8-1.6 7.5-5.4 8.3-0.5-0.1-1 0-1.5 0zM361.4 399.3h-0.6c-3.8-0.3-6.7-3.7-6.4-7.5 0.1-1 2.1-25.5 19.5-35.7 10.5-6.2 23.7-5.8 39.2 1.3 3.5 1.6 5.1 5.7 3.5 9.3-1.6 3.5-5.7 5.1-9.3 3.5-11.1-5-19.9-5.7-26.2-2-11 6.5-12.7 24.6-12.7 24.8-0.4 3.5-3.4 6.3-7 6.3zM430.5 602.8c-4.5 0-9.2-0.8-13.8-2.8-11.1-5-18.4-16-21.6-32.7-0.7-3.8 1.8-7.5 5.6-8.2 3.8-0.7 7.5 1.8 8.2 5.6 2.3 12 6.9 19.6 13.6 22.6 11.6 5.2 27.3-3.9 27.5-4 3.3-2 7.6-0.9 9.6 2.4s0.9 7.6-2.4 9.6c-0.7 0.3-12.9 7.5-26.7 7.5zM532 455c-3.7 0-6.8-2.9-7-6.7-0.2-3.9 2.8-7.1 6.7-7.3 12.2-0.6 20.3-4 24.3-10.2 6.9-10.8 0-27.7 0-27.8-1.5-3.6 0.2-7.7 3.8-9.1 3.6-1.5 7.6 0.2 9.1 3.7 0.4 1 9.7 23.6-1 40.7-6.5 10.3-18.4 15.9-35.5 16.8-0.1-0.1-0.2-0.1-0.4-0.1zM644.1 547.8c-3.7 0-6.8-2.9-7-6.7-0.2-3.9 2.8-7.1 6.7-7.3 12.2-0.6 20.3-4 24.3-10.2 6.9-10.8 0-27.7 0-27.8-1.5-3.6 0.2-7.7 3.8-9.1 3.6-1.5 7.6 0.2 9.1 3.7 0.4 1 9.7 23.6-1 40.7-6.5 10.3-18.4 15.9-35.5 16.8-0.2-0.1-0.3-0.1-0.4-0.1z" fill="#151515" p-id="4788"></path>
</svg>