<?xml version="1.0" standalone="no"?>
<svg t="1660730887347" class="icon" viewBox="-100 -100 1200 1200" version="1.1" xmlns="http://www.w3.org/2000/svg" p-id="32790" xmlns:xlink="http://www.w3.org/1999/xlink" width="30" height="30">
    <defs>
        <style type="text/css"></style>
    </defs>
    <path d="M139.636364 977.454545a93.090909 93.090909 0 0 1-93.090909-93.090909V139.636364a93.090909 93.090909 0 0 1 93.090909-93.090909h465.454545v93.090909H186.181818a46.545455 46.545455 0 0 0-46.545454 46.545454v651.636364a46.545455 46.545455 0 0 0 46.545454 46.545454h651.636364a46.545455 46.545455 0 0 0 46.545454-46.545454V418.909091h93.090909v465.454545a93.090909 93.090909 0 0 1-93.090909 93.090909z m320.139636-470.10909l460.8-460.8 65.815273 65.815272-460.8 460.8z" fill="#ffffff" p-id="32791"></path>
</svg>